<svg xmlns="http://www.w3.org/2000/svg" width="400" height="400" viewBox="0 0 400 400" version="1.1"><path d="M 309.430 120.818 C 303.361 126.119, 300.429 128.555, 296 131.974 C 293.525 133.885, 291.275 135.691, 291 135.988 C 290.725 136.285, 288.025 138.544, 285 141.009 C 281.975 143.474, 278.915 146.046, 278.201 146.723 C 277.486 147.401, 276.361 148.303, 275.701 148.728 C 275.040 149.153, 273.050 152.521, 271.277 156.214 C 269.505 159.907, 253.879 187.447, 236.554 217.414 L 205.054 271.900 214.326 288.066 C 219.425 296.957, 224.008 304.234, 224.509 304.237 C 225.818 304.245, 300.318 174.900, 303.902 166.398 C 305.548 162.492, 307.832 155.742, 308.977 151.398 C 311.112 143.302, 313.393 125.026, 312.820 120.608 L 312.500 118.136 309.430 120.818" stroke="none" fill="#f9a219" fill-rule="evenodd"/><path d="M 183.500 13.200 C 167.595 17.246, 160.444 19.561, 153.185 23.014 C 126.509 35.706, 106.105 58.641, 95.684 87.650 C 88.788 106.845, 87.982 132.365, 93.620 153 L 95.122 158.500 112.811 158.153 C 122.540 157.962, 130.629 157.683, 130.787 157.533 C 130.944 157.383, 130.132 154.871, 128.981 151.951 C 121.236 132.302, 122.175 108.656, 131.457 89.622 C 139.189 73.764, 150.617 62.296, 166.500 54.455 C 177.488 49.030, 184.722 47.070, 196.561 46.310 C 233.554 43.936, 266.660 68.213, 276.592 105 C 278.983 113.853, 278.996 133.115, 276.618 141.861 C 275.666 145.359, 275.058 148.392, 275.267 148.600 C 275.475 148.808, 276.513 148.196, 277.573 147.239 C 278.633 146.283, 281.975 143.481, 285 141.014 C 288.025 138.546, 290.725 136.285, 291 135.988 C 291.275 135.691, 293.525 133.897, 296 132 C 298.475 130.103, 300.725 128.309, 301 128.012 C 301.275 127.715, 303.863 125.524, 306.750 123.143 C 311.764 119.008, 312 118.596, 312 113.972 C 312 104.317, 307.590 88.186, 301.482 75.500 C 286.349 44.069, 258.449 22.171, 223.500 14.295 C 215.191 12.422, 189.340 11.715, 183.500 13.200 M 95.250 166.066 C 49.414 172.025, 11.258 208.341, 1.590 255.208 C -0.488 265.279, -0.524 287.349, 1.521 297.185 C 10.250 339.172, 41.099 372.826, 80.500 383.344 C 96.673 387.662, 98.888 388, 111 388 C 123.080 388, 125.189 387.680, 141.500 383.368 C 160.224 378.418, 179.993 366.272, 192.808 351.846 L 195.116 349.247 189.704 340.874 C 186.728 336.268, 182.613 329.462, 180.560 325.750 C 178.507 322.038, 176.529 319.022, 176.164 319.048 C 175.799 319.074, 173.700 321.609, 171.500 324.680 C 156.107 346.170, 124.602 357.908, 96.667 352.563 C 67.474 346.978, 44.950 326.374, 36.473 297.500 C 33.129 286.110, 32.681 269.451, 35.425 258.500 C 40.999 236.243, 56.462 216.873, 76.500 207.045 C 92.343 199.274, 88.170 199.633, 167 199.257 L 237.500 198.921 246.500 183.210 C 251.450 174.570, 255.645 166.938, 255.823 166.250 C 256.080 165.257, 240.238 165.026, 178.823 165.127 C 136.295 165.197, 98.687 165.619, 95.250 166.066 M 307.221 173.250 C 305.589 176.688, 301.732 183.775, 298.649 189 L 293.044 198.500 300.665 199.788 C 327.056 204.246, 347.168 219.106, 358.473 242.500 C 364.560 255.097, 366.346 263.020, 366.249 277 C 366.184 286.332, 365.671 290.197, 363.527 297.500 C 355.050 326.374, 332.526 346.978, 303.333 352.563 C 277.953 357.419, 251.302 348.928, 233.199 330.217 C 226.162 322.944, 225.839 322.418, 186.548 254.250 L 158.738 206 139.369 206 C 128.716 206, 120 206.360, 120 206.800 C 120 207.240, 120.405 208.027, 120.900 208.550 C 121.396 209.072, 137.883 237.400, 157.539 271.500 C 177.194 305.600, 195.448 336.650, 198.102 340.500 C 200.756 344.350, 205.870 350.523, 209.467 354.219 C 226.151 371.362, 242.403 379.813, 272.264 386.873 C 278.417 388.328, 299.583 388.328, 305.736 386.873 C 320.083 383.481, 329.379 380.524, 336.815 376.986 C 368.372 361.972, 391.134 332.514, 398.479 297.185 C 400.524 287.349, 400.488 265.279, 398.410 255.208 C 393.944 233.557, 383.362 213.660, 368.012 198.047 C 358.883 188.762, 350.092 182.402, 338.264 176.524 C 330.911 172.871, 314.095 167, 310.982 167 C 310.546 167, 308.853 169.813, 307.221 173.250" stroke="none" fill="#b53681" fill-rule="evenodd"/></svg>